<?xml version="1.0" encoding="UTF-8" standalone="no"?>
<!-- Created with Inkscape (http://www.inkscape.org/) -->

<svg
   width="76.517426mm"
   height="68.113762mm"
   viewBox="0 0 76.517422 68.11376"
   version="1.1"
   id="svg5"
   inkscape:version="1.1.2 (0a00cf5339, 2022-02-04)"
   sodipodi:docname="xamarin.svg"
   xmlns:inkscape="http://www.inkscape.org/namespaces/inkscape"
   xmlns:sodipodi="http://sodipodi.sourceforge.net/DTD/sodipodi-0.dtd"
   xmlns="http://www.w3.org/2000/svg"
   xmlns:svg="http://www.w3.org/2000/svg">
  <sodipodi:namedview
     id="namedview7"
     pagecolor="#ffffff"
     bordercolor="#666666"
     borderopacity="1.0"
     inkscape:pageshadow="2"
     inkscape:pageopacity="0.0"
     inkscape:pagecheckerboard="0"
     inkscape:document-units="mm"
     showgrid="false"
     fit-margin-top="0"
     fit-margin-left="0"
     fit-margin-right="0"
     fit-margin-bottom="0"
     inkscape:zoom="0.45254834"
     inkscape:cx="827.53591"
     inkscape:cy="646.33979"
     inkscape:window-width="1912"
     inkscape:window-height="1024"
     inkscape:window-x="1924"
     inkscape:window-y="28"
     inkscape:window-maximized="0"
     inkscape:current-layer="g2536" />
  <defs
     id="defs2" />
  <g
     inkscape:label="Layer 1"
     inkscape:groupmode="layer"
     id="layer1"
     transform="translate(-63.272452,-23.306544)">
    <g
       id="g2536"
       transform="matrix(0.60064995,0,0,0.60064995,54.506093,-69.743858)"
       style="stroke-width:1.66486">
      <path
         style="fill:#3397da;stroke-width:1.66486"
         d="m 49.572105,268.16902 -0.09102,-0.14727 H 49.136171 48.79125 l -0.935026,-0.40913 -0.935033,-0.40913 -0.662724,-0.34751 -0.662732,-0.34751 -1.185798,-1.19473 -1.185798,-1.19473 -1.168542,-2.06182 -1.168542,-2.06182 -0.112485,-0.0491 -0.112478,-0.0491 v -0.12085 -0.12085 l -0.533468,-0.9346 -0.533467,-0.93461 -0.294004,-0.51545 -0.29401,-0.51546 -0.848688,-1.47273 -0.848696,-1.47273 -0.294003,-0.51545 -0.294003,-0.51546 -0.509155,-0.88364 -0.509155,-0.88363 -1.732256,-3.00327 -1.732257,-3.00327 -0.270224,-0.48111 -0.270224,-0.4811 -1.686892,-2.922 -1.6869,-2.922 -0.288685,-0.51545 -0.288692,-0.51546 -0.501254,-0.86011 -0.50126,-0.86012 -0.273949,-0.46534 -0.273957,-0.46534 -1.477786,-2.57728 -1.477786,-2.57728 -0.34668,-0.61704 -0.34668,-0.61705 -0.929175,-1.59204 -0.92916,-1.59205 -0.103227,-0.22091 -0.103227,-0.22091 -0.272419,-0.44182 -0.272412,-0.44182 -0.293837,-0.51546 -0.293844,-0.51545 -1.445358,-2.50364 -1.445365,-2.50364 -0.51144,-0.9423 -0.51144,-0.9423 -0.273859,-0.74926 -0.273867,-0.74926 v -0.32475 -0.32475 l -0.147275,-0.091 -0.147268,-0.091 v -1.74989 -1.7499 l 0.147268,-0.091 0.147275,-0.091 v -0.32475 -0.32476 l 0.275563,-0.7539 0.275556,-0.7539 0.50554,-0.93766 0.50554,-0.93766 2.62768,-4.56545 2.62768,-4.56547 0.28874,-0.51545 0.288734,-0.51546 0.111876,-0.14727 0.111869,-0.14727 0.36582,-0.66273 0.365813,-0.66273 1.737644,-3.01909 1.737643,-3.0191 0.289288,-0.51546 0.289288,-0.51545 1.068327,-1.84091 1.068327,-1.84091 1.1449,-1.98819 1.144894,-1.98818 0.251707,-0.44182 0.2517,-0.44182 1.177177,-2.06182 1.17717,-2.06182 1.444575,-2.50364 1.444569,-2.50364 1.597453,-2.79819 1.597452,-2.79818 0.13934,-0.22091 0.139346,-0.22091 1.137657,-1.98819 1.137665,-1.98818 1.189932,-1.19473 1.189939,-1.19473 0.662732,-0.34751 0.662724,-0.34751 0.935033,-0.40913 0.935026,-0.40913 h 0.344921 0.344914 l 0.09102,-0.14726 0.09102,-0.14728 h 28.627204 28.627201 l 0.091,0.14728 0.091,0.14726 h 0.34491 0.34491 l 0.93504,0.40913 0.93503,0.40913 0.66272,0.34751 0.66274,0.34751 1.18993,1.19473 1.18994,1.19473 1.13765,1.98818 1.13767,1.98819 0.13934,0.22091 0.13935,0.22091 1.59745,2.79818 1.59744,2.79819 1.44458,2.50364 1.44457,2.50364 1.17717,2.06182 1.17717,2.06182 0.25171,0.44182 0.25171,0.44182 1.14489,1.98818 1.1449,1.98819 1.06833,1.84091 1.06833,1.84091 0.28928,0.51545 0.28929,0.51546 1.73765,3.0191 1.73764,3.01909 0.36582,0.66273 0.36582,0.66273 0.11186,0.14727 0.11187,0.14727 0.28874,0.51546 0.28874,0.51545 2.62768,4.56547 2.62768,4.56545 0.50554,0.93766 0.50554,0.93766 0.27556,0.7539 0.27556,0.7539 v 0.32476 0.32475 l 0.14727,0.091 0.14728,0.091 v 1.7499 1.74989 l -0.14728,0.091 -0.14727,0.091 v 0.32475 0.32475 l -0.27386,0.74926 -0.27386,0.74926 -0.51144,0.9423 -0.51145,0.9423 -1.44536,2.50364 -1.44535,2.50364 -0.29385,0.51545 -0.29384,0.51546 -0.27242,0.44182 -0.27241,0.44182 -0.10322,0.22091 -0.10323,0.22091 -0.92917,1.59205 -0.92917,1.59204 -0.34668,0.61705 -0.34668,0.61704 -1.47779,2.57728 -1.47778,2.57728 -0.27396,0.46534 -0.27395,0.46534 -0.50126,0.86012 -0.50125,0.86011 -0.28869,0.51546 -0.2887,0.51545 -1.68689,2.922 -1.68689,2.922 -0.27023,0.4811 -0.27022,0.48111 -1.73226,3.00327 -1.73226,3.00327 -0.50915,0.88363 -0.50915,0.88364 -0.294,0.51546 -0.29402,0.51545 -0.84868,1.47273 -0.84869,1.47273 -0.29401,0.51546 -0.29401,0.51545 -0.53346,0.93461 -0.53347,0.9346 v 0.12085 0.12085 l -0.11249,0.0491 -0.11247,0.0491 -1.16855,2.06182 -1.16854,2.06182 -1.1858,1.19473 -1.18579,1.19473 -0.66274,0.34751 -0.66272,0.34751 -0.93503,0.40913 -0.93504,0.40913 h -0.34492 -0.34491 l -0.091,0.14727 -0.091,0.14727 H 78.290328 49.663124 Z m 12.494261,-27.57686 0.33085,-0.33136 1.11117,-1.98819 1.111163,-1.98818 1.054928,-1.89371 1.054927,-1.8937 v -0.0829 -0.0829 l 0.200264,-0.2325 0.20027,-0.23251 0.4397,-0.81 0.439699,-0.81 1.105575,-1.98818 1.105575,-1.98819 3.31147,-5.89092 3.311462,-5.89091 0.493069,-0.88364 0.493069,-0.88364 0.204355,-0.405 0.204349,-0.405 h 0.05921 0.05914 l 0.302985,0.62591 0.302984,0.62591 0.304287,0.51545 0.30428,0.51546 1.363223,2.43 1.363217,2.43 0.558722,1.03092 0.558722,1.03091 0.546812,0.95727 0.546811,0.95727 0.66645,1.17819 0.66645,1.17818 3.086146,5.52274 3.086152,5.52273 0.47967,0.86511 0.479676,0.8651 0.427214,0.72457 0.427215,0.72455 v 0.1303 0.13031 l 0.496025,0.52594 0.496026,0.52594 h 5.033401 5.033411 l 0.36148,-0.36148 0.36149,-0.36149 v -0.50778 -0.50777 l -1.6408,-2.92301 -1.64079,-2.92302 -0.28138,-0.51546 -0.28139,-0.51545 -0.13874,-0.22091 -0.13875,-0.22091 -0.8109,-1.45479 -0.81089,-1.45479 v -0.0577 -0.0577 l -0.345011,-0.54934 -0.344997,-0.54935 -0.71342,-1.32546 -0.713421,-1.32545 -0.407202,-0.66273 -0.407195,-0.66273 -0.257524,-0.51545 -0.257517,-0.51546 -0.633225,-1.0799 -0.633225,-1.0799 v -0.0467 -0.0467 l -1.229424,-2.18707 -1.229431,-2.18706 -0.412402,-0.73637 -0.41241,-0.73637 -0.57568,-1.0309 -0.575681,-1.03091 -0.283132,-0.47864 -0.283138,-0.47864 0.281594,-0.47864 0.281594,-0.47863 0.406766,-0.73637 0.406773,-0.73637 0.376373,-0.68309 0.37638,-0.68309 1.313511,-2.336 1.313511,-2.336 0.364275,-0.65499 0.364276,-0.655 0.390755,-0.67046 0.390749,-0.67046 0.257213,-0.51546 0.257212,-0.51546 0.303068,-0.51545 0.303061,-0.51545 1.85168,-3.31365 1.851674,-3.31364 0.26401,-0.47413 0.26401,-0.47413 0.5419,-0.99859 0.54189,-0.99861 0.10617,-0.14727 0.10617,-0.14727 0.36275,-0.66273 0.36274,-0.66273 0.92661,-1.66573 0.92661,-1.66572 -0.0865,-0.53317 -0.0865,-0.53317 -0.23111,-0.23111 -0.23111,-0.2311 h -5.162046 -5.162042 l -0.336403,0.39109 -0.336404,0.39109 -1.013074,1.818 -1.013075,1.81801 -0.147316,0.24875 -0.147317,0.24876 -0.574511,1.0767 -0.574503,1.0767 -0.345953,0.54934 -0.345946,0.54935 v 0.0701 0.0701 l -0.42085,0.71377 -0.420851,0.71376 -0.4068,0.72863 -0.406801,0.72862 -0.522741,0.95728 -0.522748,0.95727 -0.343245,0.54935 -0.343238,0.54935 v 0.0701 0.0701 l -0.456381,0.77402 -0.456382,0.77401 -0.526799,0.96292 -0.526806,0.96292 -0.267371,0.44182 -0.267371,0.44182 -0.104639,0.22091 -0.10464,0.22091 -1.811177,3.2189 -1.811171,3.21891 v 0.05 0.05 l -0.498948,0.85472 -0.498941,0.8547 -0.358029,0.64089 -0.35803,0.64089 -0.114701,0.0218 -0.114694,0.0218 -0.3703,-0.66272 -0.370293,-0.66273 -0.468535,-0.81 -0.468527,-0.81 -0.255398,-0.51546 -0.255391,-0.51545 -0.14391,-0.22091 -0.143917,-0.22091 -1.199717,-2.13546 -1.199709,-2.13546 -0.36618,-0.66273 -0.36618,-0.66272 -0.917306,-1.62001 -0.917305,-1.62 -4.158697,-7.43728 -4.158703,-7.43729 -0.367406,-0.33681 -0.367412,-0.33682 -5.051087,0.0422 -5.051087,0.0422 -0.309819,0.28055 -0.30982,0.28055 v 0.51571 0.5157 l 0.908788,1.63375 0.908788,1.63374 0.367274,0.66273 0.367274,0.66273 0.270307,0.47864 0.2703,0.47864 0.270487,0.47863 0.270494,0.47863 0.488214,0.88364 0.488208,0.88364 1.729653,3.09273 1.729652,3.09274 0.303629,0.51545 0.303629,0.51545 0.257212,0.51546 0.257212,0.51546 0.390749,0.67046 0.390756,0.67046 0.364276,0.655 0.364275,0.65499 1.313511,2.336 1.313511,2.336 0.376373,0.68309 0.37638,0.68309 0.406766,0.73637 0.406772,0.73637 0.268126,0.45452 0.268119,0.45453 -0.765301,1.38638 -0.765301,1.38639 -0.492265,0.88364 -0.492265,0.88364 -1.229611,2.18706 -1.229611,2.18707 v 0.0618 0.0618 l -0.343418,0.54935 -0.343419,0.54935 -0.4449,0.81 -0.4449,0.81 -1.325117,2.35636 -1.325117,2.35637 -0.409771,0.73637 -0.409764,0.73636 -0.642373,1.17819 -0.642366,1.17818 -0.136077,0.22091 -0.136085,0.22091 -1.926537,3.44731 -1.926537,3.44732 v 0.49893 0.49893 l 0.361492,0.36149 0.361485,0.36148 h 5.020666 5.020667 z"
         id="path2538" />
    </g>
  </g>
</svg>
