<?xml version="1.0" encoding="UTF-8" standalone="no"?>
<!-- Created with Inkscape (http://www.inkscape.org/) -->

<svg
   width="73.271606mm"
   height="23.861971mm"
   viewBox="0 0 73.271606 23.861971"
   version="1.1"
   id="svg5"
   inkscape:version="1.1.2 (0a00cf5339, 2022-02-04)"
   sodipodi:docname="art_title_path_only.svg"
   xmlns:inkscape="http://www.inkscape.org/namespaces/inkscape"
   xmlns:sodipodi="http://sodipodi.sourceforge.net/DTD/sodipodi-0.dtd"
   xmlns="http://www.w3.org/2000/svg"
   xmlns:svg="http://www.w3.org/2000/svg">
  <sodipodi:namedview
     id="namedview7"
     pagecolor="#ffffff"
     bordercolor="#666666"
     borderopacity="1.0"
     inkscape:pageshadow="2"
     inkscape:pageopacity="0.0"
     inkscape:pagecheckerboard="0"
     inkscape:document-units="mm"
     showgrid="false"
     inkscape:zoom="2.0989208"
     inkscape:cx="221.30421"
     inkscape:cy="33.112255"
     inkscape:window-width="1912"
     inkscape:window-height="1072"
     inkscape:window-x="1924"
     inkscape:window-y="4"
     inkscape:window-maximized="0"
     inkscape:current-layer="layer2"
     fit-margin-top="0"
     fit-margin-left="0"
     fit-margin-right="0"
     fit-margin-bottom="0" />
  <defs
     id="defs2" />
  <g
     inkscape:groupmode="layer"
     id="layer2"
     inkscape:label="path-layer">
    <g
       id="g53351">
      <g
         id="path1053-9"
         transform="translate(-13.197838,-49.837554)">
        <path
           style="color:#000000;fill:#0a5078;stroke-width:0.25;-inkscape-stroke:none"
           d="m 69.40188,73.207958 v -0.366503 h 0.766771 0.766772 l 0.366306,-1.829838 0.366304,-1.829834 -0.143215,-0.191046 c -0.449001,-0.598952 -0.7463,-1.290568 -0.891712,-2.074448 -0.05858,-0.315827 -0.06991,-1.019924 -0.02221,-1.380506 0.102165,-0.772233 0.367303,-1.462312 0.819099,-2.131862 0.124688,-0.184792 0.237935,-0.342911 0.251645,-0.351376 0.0137,-0.0085 0.722509,0.681445 1.575109,1.533137 l 1.550175,1.548526 0.284261,-0.283982 0.284256,-0.283982 -0.03914,-0.11907 c -0.213076,-0.648316 0.197005,-1.319048 0.87508,-1.431302 0.707215,-0.117072 1.359226,0.534304 1.242037,1.240824 -0.11236,0.677421 -0.783773,1.087167 -1.432695,0.874231 l -0.119186,-0.03911 -0.284257,0.283983 -0.28426,0.28398 1.550036,1.548671 c 0.852522,0.851769 1.543103,1.55988 1.534627,1.573575 -0.0085,0.01372 -0.166747,0.126728 -0.351719,0.25118 -0.580451,0.390529 -1.146383,0.633225 -1.79153,0.768283 -0.533195,0.11163 -1.345219,0.111468 -1.882952,-3.43e-4 -0.08729,-0.01817 -0.161609,-0.03011 -0.165164,-0.02653 -0.0037,0.0038 0.0541,0.46362 0.128121,1.022368 0.07402,0.558746 0.134596,1.022339 0.134596,1.030209 0,0.0078 0.341183,0.01432 0.758182,0.01432 h 0.758182 v 0.366508 0.366503 h -3.301768 -3.30176 z m 4.3447,-0.445915 c -0.0077,-0.04367 -0.07515,-0.546703 -0.149687,-1.117839 -0.07454,-0.571142 -0.140464,-1.060538 -0.146515,-1.087553 -0.0071,-0.03221 -0.07527,-0.08088 -0.197604,-0.141365 -0.246902,-0.122055 -0.583251,-0.327945 -0.785073,-0.480581 -0.08973,-0.06786 -0.167091,-0.119476 -0.171891,-0.114682 -0.0047,0.0047 -0.144512,0.686578 -0.310468,1.515071 l -0.301737,1.506356 h 1.038575 1.038574 z m 3.554782,-3.109548 -2.746944,-2.74419 -2.746945,-2.744191 -0.123877,0.264354 c -0.23988,0.511906 -0.344435,0.9506 -0.366334,1.537248 -0.02748,0.73629 0.09221,1.308481 0.408485,1.95267 0.228952,0.46634 0.556823,0.894 0.953443,1.243646 0.183344,0.16163 0.629645,0.46325 0.843783,0.570253 0.336088,0.167935 0.89001,0.359382 1.233351,0.385604 0.343342,0.02622 1.070922,0.0081 1.304387,-0.02354 0.233465,-0.03157 0.855987,-0.111342 1.240651,-0.441852 z m -0.748216,-4.245392 c 0.128447,-0.07358 0.191805,-0.193292 0.179146,-0.338546 -0.03133,-0.359471 -0.492696,-0.464797 -0.671461,-0.153289 -0.06871,0.119745 -0.06996,0.233727 -0.0039,0.351236 0.102845,0.182821 0.316679,0.24341 0.496179,0.140599 z m 1.645795,-0.468438 c -0.0831,-0.888782 -0.779559,-1.584654 -1.669218,-1.667593 l -0.157462,-0.01467 V 62.88984 62.523277 l 0.182623,0.01542 c 1.290749,0.10901 2.268045,1.085348 2.377155,2.374839 l 0.01544,0.182444 h -0.36691 -0.366913 z m 1.45595,-0.142 c -0.07957,-0.802137 -0.394439,-1.474461 -0.950783,-2.030266 -0.556346,-0.555802 -1.22933,-0.870313 -2.032241,-0.94986 l -0.299606,-0.02969 V 61.42303 61.059207 l 0.226233,0.01651 c 1.044679,0.07632 1.913071,0.465023 2.62275,1.174012 0.70968,0.708992 1.098812,1.576531 1.175154,2.620198 l 0.01653,0.226013 h -0.364177 -0.364175 z"
           id="path53194" />
        <path
           style="color:#000000;fill:#0a5078;-inkscape-stroke:none"
           d="m 76.248047,60.923828 v 0.5 0.476563 l 0.412109,0.04102 c 0.777562,0.07704 1.41771,0.37722 1.955078,0.914063 0.53737,0.536849 0.838966,1.176395 0.916016,1.953125 l 0.04102,0.412109 h 0.476562 0.498047 l -0.02539,-0.359375 c -0.07823,-1.069462 -0.481352,-1.970341 -1.210937,-2.699219 -0.729587,-0.728877 -1.632708,-1.132737 -2.703125,-1.210937 z m 0.25,0.269531 0.0918,0.0078 c 1.018938,0.07444 1.853199,0.44762 2.542968,1.136719 0.689774,0.689104 1.064217,1.523146 1.138672,2.541015 l 0.0078,0.0918 h -0.230469 -0.251953 l -0.01758,-0.185547 c -0.08209,-0.827543 -0.411011,-1.532662 -0.986328,-2.107422 -0.575323,-0.574759 -1.281117,-0.904269 -2.109375,-0.986328 l -0.185547,-0.01758 v -0.25 z m -0.25,1.19336 v 0.503906 0.480469 l 0.269531,0.02539 c 0.831321,0.0775 1.479004,0.724339 1.556641,1.554688 l 0.02539,0.269531 h 0.480469 0.503906 l -0.02734,-0.318359 c -0.113951,-1.346693 -1.144347,-2.37445 -2.492188,-2.488282 z m 0.25,0.273437 0.04687,0.0039 c 1.233654,0.104189 2.157449,1.02748 2.261719,2.259766 l 0.0039,0.04687 h -0.230469 -0.251953 l -0.0039,-0.04297 c -0.08856,-0.947213 -0.835208,-1.692872 -1.783203,-1.78125 l -0.04297,-0.0039 v -0.251953 z m -4.804688,0.267578 c -9.5e-5,-9e-6 -0.03118,0.0019 -0.03125,0.002 -7.4e-5,1.2e-5 -0.04682,0.01754 -0.04687,0.01758 v -0.002 c -4.28e-4,2.65e-4 -0.01371,0.01218 -0.01758,0.01563 -0.0039,0.0034 -0.0074,0.0054 -0.0098,0.0078 -0.0046,0.0048 -0.0083,0.0096 -0.01172,0.01367 -0.0069,0.0081 -0.01352,0.01695 -0.02148,0.02734 -0.01593,0.02078 -0.03531,0.04756 -0.05859,0.08008 -0.04658,0.06503 -0.10701,0.150902 -0.169922,0.24414 -0.461387,0.683764 -0.735261,1.395037 -0.839844,2.185547 -0.05081,0.384106 -0.04069,1.074183 0.02344,1.419922 0.148579,0.800957 0.453245,1.512239 0.914062,2.126953 l 0.111328,0.146485 -0.355469,1.773437 -0.347656,1.730469 h -0.664062 -0.890625 v 0.490234 0.492188 h 3.425781 3.427734 v -0.490235 -0.492187 h -0.882812 c -0.207848,0 -0.396973,-0.0013 -0.533203,-0.0039 -0.049,-9.29e-4 -0.08178,-0.0028 -0.115235,-0.0039 -0.0068,-0.05267 -0.01404,-0.12017 -0.02539,-0.207031 -0.02441,-0.186836 -0.05868,-0.441269 -0.0957,-0.720703 -0.03698,-0.279147 -0.07057,-0.533922 -0.09375,-0.71875 -0.0073,-0.05856 -0.01043,-0.09559 -0.01563,-0.138672 0.562141,0.116206 1.374634,0.116615 1.93164,0 0.660192,-0.138207 1.242213,-0.388964 1.833985,-0.787109 0.09333,-0.06279 0.181001,-0.121484 0.246093,-0.167969 0.03255,-0.02324 0.05927,-0.04464 0.08008,-0.06055 0.0104,-0.008 0.01919,-0.01459 0.02734,-0.02148 0.0041,-0.0034 0.0089,-0.0071 0.01367,-0.01172 0.0024,-0.0023 0.0044,-0.004 0.0078,-0.0078 0.0035,-0.0039 0.01341,-0.0191 0.01367,-0.01953 3.4e-5,-5.3e-5 0.01757,-0.0468 0.01758,-0.04687 1.1e-5,-7.4e-5 0.002,-0.03115 0.002,-0.03125 -1.9e-5,-1.91e-4 -0.0077,-0.03293 -0.0078,-0.0332 -2.07e-4,-5.51e-4 -0.0088,-0.01875 -0.01172,-0.02344 -0.0058,-0.0094 -0.0098,-0.01256 -0.01367,-0.01758 -0.0078,-0.01004 -0.01662,-0.02106 -0.02734,-0.0332 -0.02145,-0.02428 -0.05094,-0.05635 -0.08984,-0.09766 -0.07781,-0.08262 -0.190717,-0.198899 -0.330078,-0.341797 -0.278721,-0.285795 -0.665222,-0.677318 -1.091797,-1.103515 l -1.460937,-1.458985 0.195312,-0.195312 0.230469,-0.230469 0.04687,0.01563 c 0.718326,0.23571 1.469568,-0.223963 1.59375,-0.972656 0.131465,-0.792591 -0.591635,-1.51606 -1.384766,-1.384766 -0.749217,0.124032 -1.210523,0.875946 -0.974609,1.59375 l 0.01563,0.04492 -0.230469,0.230469 -0.195312,0.195312 -1.460938,-1.458984 c -0.426613,-0.426159 -0.81744,-0.813342 -1.103516,-1.091797 -0.143037,-0.139228 -0.261053,-0.250393 -0.34375,-0.328125 -0.04135,-0.03887 -0.07335,-0.07037 -0.09766,-0.0918 -0.01215,-0.01071 -0.0212,-0.01756 -0.03125,-0.02539 -0.005,-0.0039 -0.01014,-0.0079 -0.01953,-0.01367 -0.0047,-0.0029 -0.02289,-0.01151 -0.02344,-0.01172 -2.75e-4,-1.03e-4 -0.03301,-0.0078 -0.0332,-0.0078 z m 0.0059,0.306641 c 0.01061,0.0099 0.017,0.01383 0.0293,0.02539 0.0807,0.07586 0.197392,0.187514 0.339843,0.326171 0.284904,0.277315 0.673624,0.662359 1.09961,1.087891 l 1.638672,1.636719 0.373046,-0.371094 0.337891,-0.339844 -0.0625,-0.191406 c -0.190238,-0.578827 0.170413,-1.169055 0.777344,-1.269531 0.621298,-0.10285 1.200569,0.477208 1.097656,1.097656 -0.100538,0.606148 -0.690015,0.965552 -1.269531,0.775391 l -0.19336,-0.0625 -0.33789,0.33789 -0.373047,0.373047 1.638672,1.636719 c 0.425947,0.42557 0.810311,0.814984 1.08789,1.099609 0.13879,0.142313 0.252193,0.25922 0.328125,0.339844 0.01139,0.01209 0.01566,0.01689 0.02539,0.02734 -0.0624,0.04456 -0.148589,0.104355 -0.240234,0.166015 -0.56913,0.382912 -1.117947,0.618092 -1.748047,0.75 -0.508256,0.106409 -1.318832,0.10671 -1.832031,0 -0.04523,-0.0094 -0.08643,-0.01818 -0.119141,-0.02344 -0.01636,-0.0026 -0.02981,-0.0045 -0.04297,-0.0059 -0.0066,-6.71e-4 -0.01184,-0.0019 -0.02148,-0.002 -0.0048,-3.6e-5 -0.02072,0.0018 -0.02148,0.002 -3.8e-4,5.2e-5 -0.02319,0.0058 -0.02344,0.0059 -1.24e-4,4.1e-5 -0.01944,0.0078 -0.01953,0.0078 -9e-5,4.9e-5 -0.03119,0.02338 -0.03125,0.02344 0,0 0.08984,0.08789 0.08984,0.08789 0,0 -0.121083,-0.03129 -0.121093,-0.03125 -2.2e-5,8.5e-5 -0.0039,0.01939 -0.0039,0.01953 -2.7e-5,2.81e-4 -9e-6,0.01078 0,0.01367 1.9e-5,0.0058 -2.05e-4,0.0085 0,0.01172 4.11e-4,0.0064 0.0012,0.0118 0.002,0.01953 0.0015,0.01546 0.0028,0.03593 0.0059,0.0625 0.0061,0.05313 0.0157,0.129797 0.02734,0.222656 0.0233,0.185719 0.05671,0.43915 0.09375,0.71875 0.037,0.279312 0.07132,0.536042 0.0957,0.722656 0.01219,0.09331 0.02053,0.169539 0.02734,0.222656 0.0034,0.02656 0.0061,0.04636 0.0078,0.06055 5.55e-4,0.0045 0.0016,0.0067 0.002,0.0098 0,0 0.125,0 0.125,0 0,0 -0.101583,0.07028 -0.101562,0.07031 4.1e-5,6.1e-5 0.02921,0.02924 0.0293,0.0293 1.65e-4,1.22e-4 0.03092,0.01746 0.03125,0.01758 6.58e-4,2.42e-4 0.0185,0.005 0.02344,0.0059 0.0099,0.0018 0.01451,0.0033 0.02148,0.0039 0.01395,0.0013 0.03053,0.0011 0.05078,0.002 0.0405,0.0018 0.09671,0.0045 0.166015,0.0059 0.138611,0.0026 0.329912,0.0039 0.539063,0.0039 h 0.632812 v 0.242187 0.240235 h -3.177734 -3.175781 v -0.242188 -0.240234 h 0.640625 0.86914 L 71.423828,71.037109 71.800781,69.152344 71.625,68.916016 c -0.437184,-0.583189 -0.726897,-1.256636 -0.869141,-2.023438 -0.05303,-0.285914 -0.06607,-1.002786 -0.02148,-1.339844 0.09975,-0.753954 0.356624,-1.42279 0.798828,-2.078125 0.06178,-0.09155 0.121368,-0.177892 0.166016,-0.240234 z m 0.07031,0.714844 -0.199219,0.425781 c -0.245601,0.524115 -0.35654,0.98679 -0.378906,1.585937 -0.02807,0.75222 0.09819,1.352445 0.421875,2.011719 0.236434,0.48158 0.573509,0.92272 0.982422,1.283203 0.20096,0.17716 0.635059,0.469946 0.871094,0.587891 0.351233,0.175503 0.900072,0.369475 1.279297,0.398437 0.36107,0.02757 1.070612,0.01199 1.332031,-0.02344 0.231934,-0.03136 0.877003,-0.103229 1.304687,-0.470703 l 0.101563,-0.08789 -0.09375,-0.0957 -2.748047,-2.744141 z m 0.07617,0.429687 2.621094,2.617188 2.613281,2.611328 c -0.347219,0.217003 -0.828238,0.335301 -1.035156,0.363281 h -0.002 c -0.205511,0.02785 -0.951731,0.0483 -1.277344,0.02344 -0.307456,-0.02348 -0.866558,-0.21268 -1.1875,-0.373047 -0.192241,-0.09606 -0.650679,-0.406635 -0.816406,-0.552735 -0.384326,-0.338808 -0.702359,-0.753978 -0.923828,-1.205078 -0.308868,-0.629102 -0.42337,-1.172219 -0.396485,-1.892578 0.02143,-0.574148 0.121311,-0.988585 0.355469,-1.488281 z m 4.634766,0.240235 c -0.189635,-0.04329 -0.411828,0.03308 -0.527344,0.234375 -0.08543,0.148876 -0.08917,0.326414 -0.0059,0.474609 0.133359,0.237065 0.432938,0.322117 0.667968,0.1875 0.163805,-0.09383 0.258495,-0.269921 0.242188,-0.457031 -0.02018,-0.231557 -0.187319,-0.396161 -0.376953,-0.439453 z m 0.134765,0.896484 -0.0625,0.01563 h 0.0332 z m -0.191406,-0.654297 c 0.09357,0.02136 0.172445,0.09084 0.183594,0.21875 0.009,0.103397 -0.0241,0.165425 -0.117188,0.21875 -0.123969,0.071 -0.251888,0.03483 -0.324218,-0.09375 -0.04881,-0.08682 -0.04809,-0.137903 0.0039,-0.228516 0.06325,-0.110214 0.160334,-0.136596 0.253906,-0.115234 z m -4.144531,4.833984 c -1.45e-4,2.1e-5 -0.03309,0.0097 -0.0332,0.0098 -1.1e-4,4.8e-5 -0.03899,0.02727 -0.03906,0.02734 0,0 -0.01951,0.02535 -0.01953,0.02539 -2.2e-5,3.9e-5 -0.0058,0.01166 -0.0059,0.01172 -5.4e-5,1.19e-4 -0.0031,0.0075 -0.0039,0.0098 -0.0016,0.0046 -0.0033,0.0077 -0.0039,0.0098 -0.0012,0.0041 -0.0011,0.0063 -0.002,0.0098 -0.0017,0.007 -0.0035,0.01658 -0.0059,0.02734 -0.0048,0.02154 -0.0113,0.05086 -0.01953,0.08984 -0.01645,0.07797 -0.04019,0.19068 -0.06836,0.328125 -0.05634,0.274889 -0.131835,0.652007 -0.214844,1.066406 l -0.332031,1.65625 h 1.191406 1.1875 l -0.04102,-0.226563 c -4.37e-4,-0.0025 -0.02171,-0.153051 -0.04883,-0.355468 -0.02712,-0.202418 -0.06236,-0.47042 -0.09961,-0.75586 -0.03729,-0.285716 -0.07302,-0.552634 -0.09961,-0.75 -0.01329,-0.09868 -0.023,-0.179306 -0.03125,-0.238281 -0.0041,-0.02949 -0.0091,-0.05265 -0.01172,-0.07031 -0.0026,-0.01767 -0.0016,-0.02198 -0.0059,-0.04102 -0.0188,-0.08531 -0.06311,-0.10448 -0.105469,-0.134766 -0.04236,-0.03029 -0.09337,-0.05974 -0.158203,-0.0918 -0.237269,-0.117293 -0.573962,-0.321843 -0.765625,-0.466797 -0.04649,-0.03516 -0.08881,-0.067 -0.123047,-0.08984 -0.01712,-0.01142 -0.0323,-0.02113 -0.04687,-0.0293 -0.0073,-0.0041 -0.01284,-0.0068 -0.02539,-0.01172 -0.0063,-0.0025 -0.0304,-0.0096 -0.03125,-0.0098 -4.26e-4,-6.5e-5 -0.03682,-4e-5 -0.03711,0 z m 0.09961,0.330079 c 0.0052,0.0038 0.0084,0.0058 0.01367,0.0098 0.21198,0.160319 0.548153,0.365371 0.804688,0.492188 0.0575,0.02843 0.100912,0.05309 0.125,0.07031 0.02409,0.01722 0.01756,0.03942 0.0059,-0.01367 -0.0028,-0.01228 0.0015,0.005 0.0039,0.02148 0.0024,0.0165 0.0057,0.0412 0.0098,0.07031 0.0081,0.05823 0.01994,0.137893 0.0332,0.236328 0.02652,0.196871 0.06041,0.462623 0.09766,0.748047 0.03728,0.285696 0.07244,0.555013 0.09961,0.757813 0.02222,0.165887 0.03237,0.241013 0.04102,0.298828 h -0.890625 -0.886719 l 0.271485,-1.357422 c 0.08295,-0.414093 0.160567,-0.792058 0.216797,-1.066406 0.0232,-0.1132 0.03934,-0.194273 0.05469,-0.267578 z"
           id="path53196" />
      </g>
      <g
         aria-label="Connected"
         transform="translate(-13.197838,-49.837554)"
         id="text5385"
         style="font-size:10.5833px;line-height:1.25;fill:#0a5078;stroke-width:0.264583">
        <path
           d="m 23.583608,59.334324 v 0.606777 h -10.38577 v -0.606777 h 3.132664 q -1.114777,-0.663222 -1.763887,-1.806221 -0.635,-1.142999 -0.635,-2.582331 0,-2.17311 1.495777,-3.640664 1.509887,-1.467555 3.795886,-1.467555 2.300109,0 3.838219,1.693332 l -1.058333,1.157111 q -0.705555,-0.677333 -1.340554,-0.945444 -0.620889,-0.268111 -1.467555,-0.268111 -1.495776,0 -2.511775,0.973666 -1.016,0.959555 -1.016,2.469442 0,1.495777 1.001888,2.511776 1.016,1.001888 2.398888,1.001888 0.860777,0 1.481665,-0.282222 0.620888,-0.296333 1.298221,-0.931332 l 1.072444,1.100666 q -0.620889,0.677332 -1.185333,1.015999 z"
           style="font-size:14.1111px;font-family:'Montserrat Subrayada';-inkscape-font-specification:'Montserrat Subrayada'"
           id="path53108" />
        <path
           d="m 32.473554,59.486019 v 0.455082 h -8.889972 v -0.455082 h 2.423576 q -0.867831,-0.497415 -1.375829,-1.365245 -0.497415,-0.867831 -0.497415,-1.936744 0,-1.629828 1.121829,-2.719908 1.12183,-1.100663 2.772825,-1.100663 1.650995,0 2.772824,1.100663 1.12183,1.09008 1.12183,2.719908 0,1.05833 -0.507998,1.936744 -0.497415,0.878413 -1.365246,1.365245 z m -2.592909,-5.1964 q -0.751414,-0.783164 -1.852077,-0.783164 -1.100663,0 -1.862661,0.783164 -0.751414,0.783164 -0.751414,1.904994 0,1.111246 0.751414,1.894411 0.761998,0.783164 1.862661,0.783164 1.100663,0 1.852077,-0.783164 0.761998,-0.783165 0.761998,-1.894411 0,-1.12183 -0.761998,-1.904994 z"
           style="font-family:'Montserrat Subrayada';-inkscape-font-specification:'Montserrat Subrayada'"
           id="path53110" />
        <path
           d="m 33.500114,59.486019 v -6.942644 h 1.248829 l 4.29682,5.524482 v -5.524482 h 1.248829 v 6.942644 h 1.02658 v 0.455082 H 38.93993 l -4.190987,-5.397483 v 5.397483 h -2.275409 v -0.455082 z"
           style="font-family:'Montserrat Subrayada';-inkscape-font-specification:'Montserrat Subrayada'"
           id="path53112" />
        <path
           d="m 42.347738,59.486019 v -6.942644 h 1.248829 l 4.29682,5.524482 v -5.524482 h 1.248829 v 6.942644 h 1.02658 v 0.455082 h -2.381242 l -4.190987,-5.397483 v 5.397483 h -2.27541 v -0.455082 z"
           style="font-family:'Montserrat Subrayada';-inkscape-font-specification:'Montserrat Subrayada'"
           id="path53114" />
        <path
           d="m 51.195361,59.486019 v -6.942644 h 5.1964 v 1.174746 h -3.94757 v 1.95791 h 3.545405 v 1.111247 h -3.545405 v 1.979077 h 4.07457 v 0.719664 h 1.02658 v 0.455082 h -7.37656 v -0.455082 z"
           style="font-family:'Montserrat Subrayada';-inkscape-font-specification:'Montserrat Subrayada'"
           id="path53116" />
        <path
           d="m 64.87956,59.486019 v 0.455082 h -7.789308 v -0.455082 h 2.349492 q -0.83608,-0.497415 -1.322912,-1.354662 -0.476248,-0.857247 -0.476248,-1.936744 0,-1.629828 1.121829,-2.730491 1.132413,-1.100663 2.846908,-1.100663 1.725078,0 2.878657,1.269995 l -0.793747,0.867831 q -0.529165,-0.507998 -1.005414,-0.709081 -0.465665,-0.201083 -1.100663,-0.201083 -1.121829,0 -1.883827,0.730248 -0.761998,0.719664 -0.761998,1.852077 0,1.12183 0.751415,1.883828 0.761997,0.751414 1.799161,0.751414 0.645581,0 1.111246,-0.211666 0.465665,-0.222249 0.973664,-0.698498 l 0.80433,0.825498 q -0.465665,0.507998 -0.888997,0.761997 z"
           style="font-family:'Montserrat Subrayada';-inkscape-font-specification:'Montserrat Subrayada'"
           id="path53118" />
        <path
           d="m 71.271852,59.486019 v 0.455082 h -6.392313 v -0.455082 h 2.571742 v -5.799648 h -2.243659 v -1.142996 h 5.736148 v 1.142996 h -2.243659 v 5.799648 z"
           style="font-family:'Montserrat Subrayada';-inkscape-font-specification:'Montserrat Subrayada'"
           id="path53120" />
        <path
           d="m 72.298415,59.486019 v -6.942644 h 5.196401 v 1.174746 h -3.947571 v 1.95791 h 3.545405 v 1.111247 h -3.545405 v 1.979077 h 4.07457 v 0.719664 h 1.02658 v 0.455082 h -7.37656 v -0.455082 z"
           style="font-family:'Montserrat Subrayada';-inkscape-font-specification:'Montserrat Subrayada'"
           id="path53122" />
        <path
           d="m 86.469446,59.486019 v 0.455082 h -8.27614 v -0.455082 h 1.02658 v -6.942644 h 2.539992 q 1.98966,0 3.058574,0.973663 1.068913,0.96308 1.068913,2.719908 0,2.360076 -1.862661,3.249073 z m -1.841494,-3.249073 q 0,-2.539992 -2.910407,-2.539992 h -1.24883 v 5.069401 h 1.386413 q 1.344079,0 2.05316,-0.634998 0.719664,-0.645581 0.719664,-1.894411 z"
           style="font-family:'Montserrat Subrayada';-inkscape-font-specification:'Montserrat Subrayada'"
           id="path53124" />
      </g>
      <g
         aria-label="Objects"
         transform="translate(-13.197838,-49.837554)"
         id="text26482"
         style="font-size:10.5833px;line-height:1.25;fill:#0a5078;stroke-width:0.264583">
        <path
           d="m 25.051162,72.836697 v 0.606777 H 13.197838 v -0.606777 h 3.231442 q -1.15711,-0.663222 -1.834443,-1.820332 -0.663222,-1.157111 -0.663222,-2.582332 0,-2.173109 1.495777,-3.626553 1.495776,-1.467554 3.697108,-1.467554 2.201332,0 3.697108,1.467554 1.495777,1.453444 1.495777,3.626553 0,1.41111 -0.677333,2.582332 -0.663222,1.171221 -1.820332,1.820332 z m -3.45722,-6.928551 q -1.001888,-1.044221 -2.469442,-1.044221 -1.467555,0 -2.483554,1.044221 -1.001888,1.044222 -1.001888,2.539998 0,1.481666 1.001888,2.525887 1.015999,1.044222 2.483554,1.044222 1.467554,0 2.469442,-1.044222 1.016,-1.044221 1.016,-2.525887 0,-1.495776 -1.016,-2.539998 z"
           style="font-size:14.1111px"
           id="path53127" />
        <path
           d="m 32.522947,72.988392 v 0.455082 h -7.47181 v -0.455082 h 1.02658 v -6.942645 h 2.878658 q 0.751414,0 1.291162,0.179916 0.550332,0.179917 0.814914,0.486832 0.507999,0.571498 0.507999,1.291163 0,0.86783 -0.550332,1.291162 -0.201083,0.148167 -0.275166,0.1905 -0.07408,0.03175 -0.264582,0.116416 0.687914,0.148166 1.09008,0.624415 0.412748,0.465665 0.412748,1.164163 0,1.047746 -0.825497,1.598078 z m -5.196401,-0.698498 h 1.957911 q 0.687914,0 1.047746,-0.211666 0.370416,-0.222249 0.370416,-0.825497 0,-0.984247 -1.576912,-0.984247 h -1.799161 z m 0,-3.17499 h 1.587495 q 1.354663,0 1.354663,-0.920747 0,-0.529165 -0.328083,-0.761997 -0.328082,-0.232833 -1.015996,-0.232833 h -1.598079 z"
           style="font-family:'Montserrat Subrayada';-inkscape-font-specification:'Montserrat Subrayada'"
           id="path53129" />
        <path
           d="m 38.354338,72.988392 v 0.455082 H 32.52294 v -0.455082 h 1.164163 q -0.465666,-0.211666 -0.836081,-0.603248 l 0.709081,-0.984247 q 0.719664,0.687914 1.407579,0.687914 0.486832,0 0.825497,-0.328082 0.349249,-0.328082 0.349249,-0.984247 v -3.608905 h -2.349492 v -1.12183 h 3.598322 v 4.667236 q 0,1.650994 -1.09008,2.275409 z"
           style="font-family:'Montserrat Subrayada';-inkscape-font-specification:'Montserrat Subrayada'"
           id="path53131" />
        <path
           d="m 39.380904,72.988392 v -6.942645 h 5.196401 v 1.174747 h -3.947571 v 1.95791 h 3.545405 v 1.111247 h -3.545405 v 1.979077 h 4.07457 v 0.719664 h 1.02658 v 0.455082 h -7.37656 v -0.455082 z"
           style="font-family:'Montserrat Subrayada';-inkscape-font-specification:'Montserrat Subrayada'"
           id="path53133" />
        <path
           d="m 53.065104,72.988392 v 0.455082 h -7.789309 v -0.455082 h 2.349493 q -0.836081,-0.497415 -1.322913,-1.354662 -0.476248,-0.857248 -0.476248,-1.936744 0,-1.629828 1.121829,-2.730492 1.132413,-1.100663 2.846908,-1.100663 1.725078,0 2.878657,1.269996 l -0.793747,0.867831 q -0.529165,-0.507999 -1.005414,-0.709081 -0.465665,-0.201083 -1.100663,-0.201083 -1.121829,0 -1.883827,0.730248 -0.761998,0.719664 -0.761998,1.852077 0,1.12183 0.751415,1.883827 0.761997,0.751415 1.799161,0.751415 0.645581,0 1.111246,-0.211666 0.465665,-0.22225 0.973664,-0.698498 l 0.80433,0.825497 q -0.465665,0.507999 -0.888997,0.761998 z"
           style="font-family:'Montserrat Subrayada';-inkscape-font-specification:'Montserrat Subrayada'"
           id="path53135" />
        <path
           d="m 59.457396,72.988392 v 0.455082 h -6.392313 v -0.455082 h 2.571741 v -5.799648 h -2.243659 v -1.142997 h 5.736148 v 1.142997 h -2.243659 v 5.799648 z"
           style="font-family:'Montserrat Subrayada';-inkscape-font-specification:'Montserrat Subrayada'"
           id="path53137" />
        <path
           d="m 66.124857,72.988392 v 0.455082 h -6.667479 v -0.455082 h 1.354663 Q 60.304042,72.723809 59.88071,72.332227 l 0.783165,-0.941913 q 1.121829,0.973663 2.328325,0.973663 0.603249,0 0.952497,-0.253999 0.359833,-0.264582 0.359833,-0.687914 0,-0.433916 -0.338666,-0.666748 Q 63.637782,70.5119 62.822868,70.3214 62.007954,70.120318 61.584622,69.961568 61.16129,69.792235 60.833207,69.527653 q -0.656164,-0.497415 -0.656164,-1.523995 0,-1.02658 0.740831,-1.576912 0.751414,-0.560915 1.852077,-0.560915 0.709081,0 1.407579,0.232833 0.698498,0.232832 1.206496,0.656164 l -0.666748,0.941914 q -0.328082,-0.296332 -0.888997,-0.486832 -0.560915,-0.190499 -1.111246,-0.190499 -0.539749,0 -0.888997,0.222249 -0.349249,0.22225 -0.349249,0.677331 0,0.444499 0.349249,0.687915 0.349248,0.232832 1.481661,0.507998 1.142997,0.275166 1.714495,0.772581 0.582081,0.497415 0.582081,1.396996 0,1.09008 -0.80433,1.703911 z"
           style="font-family:'Montserrat Subrayada';-inkscape-font-specification:'Montserrat Subrayada'"
           id="path53139" />
      </g>
    </g>
  </g>
</svg>
