<?xml version="1.0" encoding="UTF-8" standalone="no"?>
<!-- Created with Inkscape (http://www.inkscape.org/) -->

<svg
   width="135.46916mm"
   height="81.486267mm"
   viewBox="0 0 135.46916 81.486267"
   version="1.1"
   id="svg5"
   inkscape:version="1.1.2 (0a00cf5339, 2022-02-04)"
   sodipodi:docname="container.svg"
   xmlns:inkscape="http://www.inkscape.org/namespaces/inkscape"
   xmlns:sodipodi="http://sodipodi.sourceforge.net/DTD/sodipodi-0.dtd"
   xmlns="http://www.w3.org/2000/svg"
   xmlns:svg="http://www.w3.org/2000/svg">
  <sodipodi:namedview
     id="namedview7"
     pagecolor="#ffffff"
     bordercolor="#666666"
     borderopacity="1.0"
     inkscape:pageshadow="2"
     inkscape:pageopacity="0.0"
     inkscape:pagecheckerboard="0"
     inkscape:document-units="mm"
     showgrid="false"
     fit-margin-top="0"
     fit-margin-left="0"
     fit-margin-right="0"
     fit-margin-bottom="0"
     inkscape:zoom="0.64"
     inkscape:cx="533.59375"
     inkscape:cy="478.90625"
     inkscape:window-width="1912"
     inkscape:window-height="1024"
     inkscape:window-x="1924"
     inkscape:window-y="28"
     inkscape:window-maximized="0"
     inkscape:current-layer="layer1" />
  <defs
     id="defs2" />
  <g
     inkscape:label="Layer 1"
     inkscape:groupmode="layer"
     id="layer1"
     transform="translate(-30.351669,-13.872658)">
    <path
       style="fill:#292929;stroke-width:1;fill-opacity:1"
       d="m 47.086559,88.171828 -16.73489,-7.1871 v -25.15721 -25.15721 l 16.86719,-8.39882 16.86718,-8.39883 50.800001,6.95647 50.79999,6.95647 0.0674,27.95627 0.0674,27.95627 -0.8611,0.14272 -0.86111,0.14272 -49.21249,5.56079 -49.212501,5.56079 -0.92604,0.12688 -0.92604,0.12689 z m 67.182871,-3.13519 46.60098,-5.30052 0.225,-0.13905 0.225,-0.13906 v -23.63219 -23.6322 l -0.33073,-0.26005 -0.33073,-0.26005 -46.80865,-6.37563 -46.808641,-6.37563 -0.22104,0.13661 -0.22104,0.1366 v 35.57085 35.57084 h 0.53443 0.53443 z m -41.981311,-1.355 -0.52917,-0.28944 -0.33072,-0.41455 -0.33073,-0.41455 v -27.94537 -27.94537 l 0.52021,-0.55839 0.52022,-0.55838 0.51511,-0.16349 0.51511,-0.16349 40.834981,4.53263 40.83499,4.53264 0.65371,0.30653 0.65372,0.30654 0.33457,0.66146 0.33457,0.66146 0.004,19.50057 0.004,19.50057 -0.28341,0.62202 -0.28341,0.62202 -0.56598,0.35346 -0.56597,0.35346 -40.62405,3.39478 -40.624051,3.39478 -0.52917,-2.3e-4 -0.52916,-2.3e-4 -0.52917,-0.28943 z m 8.73125,-4.87807 2.64583,-0.17712 0.46302,-0.23937 0.46303,-0.23937 v -23.3907 -23.3907 l -0.25813,-0.15953 -0.25813,-0.15954 -3.2476,-0.38295 -3.2476,-0.38295 -0.99219,-0.002 -0.99219,-0.002 v 24.29757 24.29757 l 0.19844,0.2006 0.19844,0.2006 1.19062,-0.1462 1.19063,-0.1462 z m 13.57442,-1.16244 2.9911,-0.25528 0.25005,-0.15455 0.25005,-0.15454 v -22.04469 -22.0447 l -0.33072,-0.25533 -0.33073,-0.25533 -3.95275,-0.42315 -3.95275,-0.42315 -0.21444,0.13253 -0.21444,0.13253 v 22.95904 22.95904 l 0.16662,0.16662 0.16662,0.16662 1.09015,-0.12519 1.09015,-0.12519 z m 15.397451,-1.28016 1.45521,-0.17902 v -21.03437 -21.03438 l -2.51354,-0.31723 -2.51354,-0.31724 -1.85208,-0.0796 -1.85209,-0.0796 -0.0683,21.43125 -0.0684,21.43125 0.13914,0.36447 0.13914,0.36447 2.83963,-0.18546 2.83963,-0.18545 z m 11.50938,-0.92637 3.43958,-0.31098 0.0678,-19.74352 0.0678,-19.74352 -0.99387,-0.15014 -0.99386,-0.15014 -3.0618,-0.32718 -3.0618,-0.32719 -0.44393,0.17035 -0.44393,0.17036 v 20.20483 20.20483 l 0.17639,0.17639 0.17639,0.17639 0.8158,-0.0198 0.8158,-0.0197 z m 14.25104,-1.21209 2.60937,-0.22205 0.23085,-0.36447 0.23084,-0.36446 v -17.72708 -17.72708 l -0.24024,-0.37966 -0.24024,-0.37966 -4.05519,-0.45397 -4.05518,-0.45397 -0.19844,0.12164 -0.19844,0.12164 v 18.99029 18.99029 l 0.18371,0.1837 0.18371,0.18371 1.46994,-0.14841 1.46993,-0.14841 z m 16.21428,-1.4582 0.35864,-0.13763 v -16.77694 -16.77695 l -0.33073,-0.26675 -0.33073,-0.26674 -3.77326,-0.42711 -3.77326,-0.42711 h -0.39393 -0.39393 v 17.83732 17.83733 l 0.28889,0.0963 0.28889,0.0963 3.85039,-0.3252 3.85039,-0.32519 z M 61.837079,54.750698 v -34.52812 h -0.2667 -0.2667 l -6.31335,3.15878 -6.31335,3.15878 -0.16682,0.43473 -0.16682,0.43474 v 27.99179 27.9918 l 0.43547,0.36141 0.43547,0.36141 5.98067,2.57244 5.98068,2.57244 0.33073,0.009 0.33072,0.009 z m -8.12118,12.72282 -0.74236,-0.63864 v -9.96768 -9.96768 l 0.74236,-0.63847 0.74236,-0.63847 h 0.79102 0.79102 l 0.64944,0.64943 0.64943,0.64943 v 9.94593 9.94593 l -0.64943,0.64943 -0.64944,0.64943 h -0.79102 -0.79102 z m -9.93534,-12.14954 0.0674,-26.10557 h -0.26918 -0.26918 l -4.03159,2.01671 -4.03159,2.01672 -0.19525,0.29839 -0.19525,0.29839 0.063,22.08092 0.063,22.08091 4.10104,1.77956 4.10104,1.77956 0.26458,-0.07 0.26459,-0.07 z m -4.96222,10.48466 -0.39688,-0.14508 -0.59531,-0.54161 -0.59531,-0.54162 v -8.82944 -8.82945 l 0.64943,-0.64943 0.64943,-0.64943 h 0.79102 0.79102 l 0.74236,0.6382 0.74236,0.63821 0.0844,8.15919 0.0844,8.15919 -0.29955,1.01269 -0.29956,1.01269 -0.90078,0.37637 -0.90078,0.37637 -0.0746,-0.0209 -0.0746,-0.0209 z"
       id="path1453" />
  </g>
</svg>
